<mxfile host="app.diagrams.net" modified="2022-03-16T07:37:34.902Z" agent="5.0 (Windows)" etag="4BM_YYK1VAheFNFdgwC7" version="17.1.3" type="github">
  <diagram id="CuBRP6dmT0tsgEbVqfPB" name="Page-1">
    <mxGraphModel dx="1240" dy="643" grid="1" gridSize="10" guides="1" tooltips="1" connect="1" arrows="1" fold="1" page="1" pageScale="1" pageWidth="850" pageHeight="1100" math="0" shadow="0">
      <root>
        <mxCell id="0" />
        <mxCell id="1" parent="0" />
        <mxCell id="KHMA0O44EKqsa6pngYkj-2" value="" style="rounded=0;whiteSpace=wrap;html=1;" vertex="1" parent="1">
          <mxGeometry x="100" y="70" width="540" height="350" as="geometry" />
        </mxCell>
        <mxCell id="KHMA0O44EKqsa6pngYkj-6" value="" style="rounded=0;whiteSpace=wrap;html=1;" vertex="1" parent="1">
          <mxGeometry x="110" y="140" width="520" height="270" as="geometry" />
        </mxCell>
        <mxCell id="KHMA0O44EKqsa6pngYkj-7" value="" style="rounded=0;whiteSpace=wrap;html=1;strokeColor=none;" vertex="1" parent="1">
          <mxGeometry x="110" y="80" width="520" height="50" as="geometry" />
        </mxCell>
        <mxCell id="KHMA0O44EKqsa6pngYkj-8" value="Search User" style="rounded=0;whiteSpace=wrap;html=1;align=left;spacingLeft=8;fontColor=#919191;" vertex="1" parent="1">
          <mxGeometry x="110" y="90" width="240" height="30" as="geometry" />
        </mxCell>
        <mxCell id="KHMA0O44EKqsa6pngYkj-9" value="Add User" style="rounded=1;whiteSpace=wrap;html=1;fillColor=#d5e8d4;strokeColor=#82b366;" vertex="1" parent="1">
          <mxGeometry x="540" y="90" width="90" height="30" as="geometry" />
        </mxCell>
        <mxCell id="KHMA0O44EKqsa6pngYkj-12" value="" style="shape=table;html=1;whiteSpace=wrap;startSize=0;container=1;collapsible=0;childLayout=tableLayout;" vertex="1" parent="1">
          <mxGeometry x="110" y="140" width="260" height="134" as="geometry" />
        </mxCell>
        <mxCell id="KHMA0O44EKqsa6pngYkj-13" value="" style="shape=tableRow;horizontal=0;startSize=0;swimlaneHead=0;swimlaneBody=0;top=0;left=0;bottom=0;right=0;collapsible=0;dropTarget=0;fillColor=none;points=[[0,0.5],[1,0.5]];portConstraint=eastwest;" vertex="1" parent="KHMA0O44EKqsa6pngYkj-12">
          <mxGeometry width="260" height="33" as="geometry" />
        </mxCell>
        <mxCell id="KHMA0O44EKqsa6pngYkj-14" value="ID" style="shape=partialRectangle;html=1;whiteSpace=wrap;connectable=0;fillColor=none;top=0;left=0;bottom=0;right=0;overflow=hidden;" vertex="1" parent="KHMA0O44EKqsa6pngYkj-13">
          <mxGeometry width="65" height="33" as="geometry">
            <mxRectangle width="65" height="33" as="alternateBounds" />
          </mxGeometry>
        </mxCell>
        <mxCell id="KHMA0O44EKqsa6pngYkj-15" value="Name" style="shape=partialRectangle;html=1;whiteSpace=wrap;connectable=0;fillColor=none;top=0;left=0;bottom=0;right=0;overflow=hidden;" vertex="1" parent="KHMA0O44EKqsa6pngYkj-13">
          <mxGeometry x="65" width="81" height="33" as="geometry">
            <mxRectangle width="81" height="33" as="alternateBounds" />
          </mxGeometry>
        </mxCell>
        <mxCell id="KHMA0O44EKqsa6pngYkj-16" value="Email" style="shape=partialRectangle;html=1;whiteSpace=wrap;connectable=0;fillColor=none;top=0;left=0;bottom=0;right=0;overflow=hidden;" vertex="1" parent="KHMA0O44EKqsa6pngYkj-13">
          <mxGeometry x="146" width="114" height="33" as="geometry">
            <mxRectangle width="114" height="33" as="alternateBounds" />
          </mxGeometry>
        </mxCell>
        <mxCell id="KHMA0O44EKqsa6pngYkj-17" value="" style="shape=tableRow;horizontal=0;startSize=0;swimlaneHead=0;swimlaneBody=0;top=0;left=0;bottom=0;right=0;collapsible=0;dropTarget=0;fillColor=none;points=[[0,0.5],[1,0.5]];portConstraint=eastwest;" vertex="1" parent="KHMA0O44EKqsa6pngYkj-12">
          <mxGeometry y="33" width="260" height="34" as="geometry" />
        </mxCell>
        <mxCell id="KHMA0O44EKqsa6pngYkj-18" value="1" style="shape=partialRectangle;html=1;whiteSpace=wrap;connectable=0;fillColor=none;top=0;left=0;bottom=0;right=0;overflow=hidden;" vertex="1" parent="KHMA0O44EKqsa6pngYkj-17">
          <mxGeometry width="65" height="34" as="geometry">
            <mxRectangle width="65" height="34" as="alternateBounds" />
          </mxGeometry>
        </mxCell>
        <mxCell id="KHMA0O44EKqsa6pngYkj-19" value="Test User 1" style="shape=partialRectangle;html=1;whiteSpace=wrap;connectable=0;fillColor=none;top=0;left=0;bottom=0;right=0;overflow=hidden;" vertex="1" parent="KHMA0O44EKqsa6pngYkj-17">
          <mxGeometry x="65" width="81" height="34" as="geometry">
            <mxRectangle width="81" height="34" as="alternateBounds" />
          </mxGeometry>
        </mxCell>
        <mxCell id="KHMA0O44EKqsa6pngYkj-20" value="test1@gmail.com" style="shape=partialRectangle;html=1;whiteSpace=wrap;connectable=0;fillColor=none;top=0;left=0;bottom=0;right=0;overflow=hidden;" vertex="1" parent="KHMA0O44EKqsa6pngYkj-17">
          <mxGeometry x="146" width="114" height="34" as="geometry">
            <mxRectangle width="114" height="34" as="alternateBounds" />
          </mxGeometry>
        </mxCell>
        <mxCell id="KHMA0O44EKqsa6pngYkj-30" value="" style="shape=tableRow;horizontal=0;startSize=0;swimlaneHead=0;swimlaneBody=0;top=0;left=0;bottom=0;right=0;collapsible=0;dropTarget=0;fillColor=none;points=[[0,0.5],[1,0.5]];portConstraint=eastwest;" vertex="1" parent="KHMA0O44EKqsa6pngYkj-12">
          <mxGeometry y="67" width="260" height="34" as="geometry" />
        </mxCell>
        <mxCell id="KHMA0O44EKqsa6pngYkj-31" value="2" style="shape=partialRectangle;html=1;whiteSpace=wrap;connectable=0;fillColor=none;top=0;left=0;bottom=0;right=0;overflow=hidden;" vertex="1" parent="KHMA0O44EKqsa6pngYkj-30">
          <mxGeometry width="65" height="34" as="geometry">
            <mxRectangle width="65" height="34" as="alternateBounds" />
          </mxGeometry>
        </mxCell>
        <mxCell id="KHMA0O44EKqsa6pngYkj-32" value="Test User 2" style="shape=partialRectangle;html=1;whiteSpace=wrap;connectable=0;fillColor=none;top=0;left=0;bottom=0;right=0;overflow=hidden;" vertex="1" parent="KHMA0O44EKqsa6pngYkj-30">
          <mxGeometry x="65" width="81" height="34" as="geometry">
            <mxRectangle width="81" height="34" as="alternateBounds" />
          </mxGeometry>
        </mxCell>
        <mxCell id="KHMA0O44EKqsa6pngYkj-33" value="test2@gmail.com" style="shape=partialRectangle;html=1;whiteSpace=wrap;connectable=0;fillColor=none;top=0;left=0;bottom=0;right=0;overflow=hidden;" vertex="1" parent="KHMA0O44EKqsa6pngYkj-30">
          <mxGeometry x="146" width="114" height="34" as="geometry">
            <mxRectangle width="114" height="34" as="alternateBounds" />
          </mxGeometry>
        </mxCell>
        <mxCell id="KHMA0O44EKqsa6pngYkj-21" value="" style="shape=tableRow;horizontal=0;startSize=0;swimlaneHead=0;swimlaneBody=0;top=0;left=0;bottom=0;right=0;collapsible=0;dropTarget=0;fillColor=none;points=[[0,0.5],[1,0.5]];portConstraint=eastwest;" vertex="1" parent="KHMA0O44EKqsa6pngYkj-12">
          <mxGeometry y="101" width="260" height="33" as="geometry" />
        </mxCell>
        <mxCell id="KHMA0O44EKqsa6pngYkj-22" value="3" style="shape=partialRectangle;html=1;whiteSpace=wrap;connectable=0;fillColor=none;top=0;left=0;bottom=0;right=0;overflow=hidden;" vertex="1" parent="KHMA0O44EKqsa6pngYkj-21">
          <mxGeometry width="65" height="33" as="geometry">
            <mxRectangle width="65" height="33" as="alternateBounds" />
          </mxGeometry>
        </mxCell>
        <mxCell id="KHMA0O44EKqsa6pngYkj-23" value="Test User 3" style="shape=partialRectangle;html=1;whiteSpace=wrap;connectable=0;fillColor=none;top=0;left=0;bottom=0;right=0;overflow=hidden;" vertex="1" parent="KHMA0O44EKqsa6pngYkj-21">
          <mxGeometry x="65" width="81" height="33" as="geometry">
            <mxRectangle width="81" height="33" as="alternateBounds" />
          </mxGeometry>
        </mxCell>
        <mxCell id="KHMA0O44EKqsa6pngYkj-24" value="test3@gmail.com" style="shape=partialRectangle;html=1;whiteSpace=wrap;connectable=0;fillColor=none;top=0;left=0;bottom=0;right=0;overflow=hidden;pointerEvents=1;" vertex="1" parent="KHMA0O44EKqsa6pngYkj-21">
          <mxGeometry x="146" width="114" height="33" as="geometry">
            <mxRectangle width="114" height="33" as="alternateBounds" />
          </mxGeometry>
        </mxCell>
        <mxCell id="KHMA0O44EKqsa6pngYkj-54" value="" style="shape=table;html=1;whiteSpace=wrap;startSize=0;container=1;collapsible=0;childLayout=tableLayout;" vertex="1" parent="1">
          <mxGeometry x="370" y="140" width="260" height="134" as="geometry" />
        </mxCell>
        <mxCell id="KHMA0O44EKqsa6pngYkj-55" value="" style="shape=tableRow;horizontal=0;startSize=0;swimlaneHead=0;swimlaneBody=0;top=0;left=0;bottom=0;right=0;collapsible=0;dropTarget=0;fillColor=none;points=[[0,0.5],[1,0.5]];portConstraint=eastwest;" vertex="1" parent="KHMA0O44EKqsa6pngYkj-54">
          <mxGeometry width="260" height="33" as="geometry" />
        </mxCell>
        <mxCell id="KHMA0O44EKqsa6pngYkj-56" value="Age" style="shape=partialRectangle;html=1;whiteSpace=wrap;connectable=0;fillColor=none;top=0;left=0;bottom=0;right=0;overflow=hidden;" vertex="1" parent="KHMA0O44EKqsa6pngYkj-55">
          <mxGeometry width="65" height="33" as="geometry">
            <mxRectangle width="65" height="33" as="alternateBounds" />
          </mxGeometry>
        </mxCell>
        <mxCell id="KHMA0O44EKqsa6pngYkj-57" value="Mobile No" style="shape=partialRectangle;html=1;whiteSpace=wrap;connectable=0;fillColor=none;top=0;left=0;bottom=0;right=0;overflow=hidden;" vertex="1" parent="KHMA0O44EKqsa6pngYkj-55">
          <mxGeometry x="65" width="82" height="33" as="geometry">
            <mxRectangle width="82" height="33" as="alternateBounds" />
          </mxGeometry>
        </mxCell>
        <mxCell id="KHMA0O44EKqsa6pngYkj-58" value="Action" style="shape=partialRectangle;html=1;whiteSpace=wrap;connectable=0;fillColor=none;top=0;left=0;bottom=0;right=0;overflow=hidden;" vertex="1" parent="KHMA0O44EKqsa6pngYkj-55">
          <mxGeometry x="147" width="113" height="33" as="geometry">
            <mxRectangle width="113" height="33" as="alternateBounds" />
          </mxGeometry>
        </mxCell>
        <mxCell id="KHMA0O44EKqsa6pngYkj-59" value="" style="shape=tableRow;horizontal=0;startSize=0;swimlaneHead=0;swimlaneBody=0;top=0;left=0;bottom=0;right=0;collapsible=0;dropTarget=0;fillColor=none;points=[[0,0.5],[1,0.5]];portConstraint=eastwest;" vertex="1" parent="KHMA0O44EKqsa6pngYkj-54">
          <mxGeometry y="33" width="260" height="34" as="geometry" />
        </mxCell>
        <mxCell id="KHMA0O44EKqsa6pngYkj-60" value="25" style="shape=partialRectangle;html=1;whiteSpace=wrap;connectable=0;fillColor=none;top=0;left=0;bottom=0;right=0;overflow=hidden;" vertex="1" parent="KHMA0O44EKqsa6pngYkj-59">
          <mxGeometry width="65" height="34" as="geometry">
            <mxRectangle width="65" height="34" as="alternateBounds" />
          </mxGeometry>
        </mxCell>
        <mxCell id="KHMA0O44EKqsa6pngYkj-61" value="0771234567" style="shape=partialRectangle;html=1;whiteSpace=wrap;connectable=0;fillColor=none;top=0;left=0;bottom=0;right=0;overflow=hidden;" vertex="1" parent="KHMA0O44EKqsa6pngYkj-59">
          <mxGeometry x="65" width="82" height="34" as="geometry">
            <mxRectangle width="82" height="34" as="alternateBounds" />
          </mxGeometry>
        </mxCell>
        <mxCell id="KHMA0O44EKqsa6pngYkj-62" value="" style="shape=partialRectangle;html=1;whiteSpace=wrap;connectable=0;fillColor=none;top=0;left=0;bottom=0;right=0;overflow=hidden;" vertex="1" parent="KHMA0O44EKqsa6pngYkj-59">
          <mxGeometry x="147" width="113" height="34" as="geometry">
            <mxRectangle width="113" height="34" as="alternateBounds" />
          </mxGeometry>
        </mxCell>
        <mxCell id="KHMA0O44EKqsa6pngYkj-63" value="" style="shape=tableRow;horizontal=0;startSize=0;swimlaneHead=0;swimlaneBody=0;top=0;left=0;bottom=0;right=0;collapsible=0;dropTarget=0;fillColor=none;points=[[0,0.5],[1,0.5]];portConstraint=eastwest;" vertex="1" parent="KHMA0O44EKqsa6pngYkj-54">
          <mxGeometry y="67" width="260" height="34" as="geometry" />
        </mxCell>
        <mxCell id="KHMA0O44EKqsa6pngYkj-64" value="30" style="shape=partialRectangle;html=1;whiteSpace=wrap;connectable=0;fillColor=none;top=0;left=0;bottom=0;right=0;overflow=hidden;" vertex="1" parent="KHMA0O44EKqsa6pngYkj-63">
          <mxGeometry width="65" height="34" as="geometry">
            <mxRectangle width="65" height="34" as="alternateBounds" />
          </mxGeometry>
        </mxCell>
        <mxCell id="KHMA0O44EKqsa6pngYkj-65" value="0771234567" style="shape=partialRectangle;html=1;whiteSpace=wrap;connectable=0;fillColor=none;top=0;left=0;bottom=0;right=0;overflow=hidden;" vertex="1" parent="KHMA0O44EKqsa6pngYkj-63">
          <mxGeometry x="65" width="82" height="34" as="geometry">
            <mxRectangle width="82" height="34" as="alternateBounds" />
          </mxGeometry>
        </mxCell>
        <mxCell id="KHMA0O44EKqsa6pngYkj-66" value="" style="shape=partialRectangle;html=1;whiteSpace=wrap;connectable=0;fillColor=none;top=0;left=0;bottom=0;right=0;overflow=hidden;" vertex="1" parent="KHMA0O44EKqsa6pngYkj-63">
          <mxGeometry x="147" width="113" height="34" as="geometry">
            <mxRectangle width="113" height="34" as="alternateBounds" />
          </mxGeometry>
        </mxCell>
        <mxCell id="KHMA0O44EKqsa6pngYkj-67" value="" style="shape=tableRow;horizontal=0;startSize=0;swimlaneHead=0;swimlaneBody=0;top=0;left=0;bottom=0;right=0;collapsible=0;dropTarget=0;fillColor=none;points=[[0,0.5],[1,0.5]];portConstraint=eastwest;" vertex="1" parent="KHMA0O44EKqsa6pngYkj-54">
          <mxGeometry y="101" width="260" height="33" as="geometry" />
        </mxCell>
        <mxCell id="KHMA0O44EKqsa6pngYkj-68" value="32" style="shape=partialRectangle;html=1;whiteSpace=wrap;connectable=0;fillColor=none;top=0;left=0;bottom=0;right=0;overflow=hidden;" vertex="1" parent="KHMA0O44EKqsa6pngYkj-67">
          <mxGeometry width="65" height="33" as="geometry">
            <mxRectangle width="65" height="33" as="alternateBounds" />
          </mxGeometry>
        </mxCell>
        <mxCell id="KHMA0O44EKqsa6pngYkj-69" value="0771234567" style="shape=partialRectangle;html=1;whiteSpace=wrap;connectable=0;fillColor=none;top=0;left=0;bottom=0;right=0;overflow=hidden;" vertex="1" parent="KHMA0O44EKqsa6pngYkj-67">
          <mxGeometry x="65" width="82" height="33" as="geometry">
            <mxRectangle width="82" height="33" as="alternateBounds" />
          </mxGeometry>
        </mxCell>
        <mxCell id="KHMA0O44EKqsa6pngYkj-70" value="" style="shape=partialRectangle;html=1;whiteSpace=wrap;connectable=0;fillColor=none;top=0;left=0;bottom=0;right=0;overflow=hidden;pointerEvents=1;" vertex="1" parent="KHMA0O44EKqsa6pngYkj-67">
          <mxGeometry x="147" width="113" height="33" as="geometry">
            <mxRectangle width="113" height="33" as="alternateBounds" />
          </mxGeometry>
        </mxCell>
        <mxCell id="KHMA0O44EKqsa6pngYkj-86" value="View" style="rounded=1;whiteSpace=wrap;html=1;fillColor=#d5e8d4;strokeColor=#82b366;" vertex="1" parent="1">
          <mxGeometry x="570" y="180" width="52" height="20" as="geometry" />
        </mxCell>
        <mxCell id="KHMA0O44EKqsa6pngYkj-93" value="View" style="rounded=1;whiteSpace=wrap;html=1;fillColor=#d5e8d4;strokeColor=#82b366;" vertex="1" parent="1">
          <mxGeometry x="570" y="214" width="52" height="20" as="geometry" />
        </mxCell>
        <mxCell id="KHMA0O44EKqsa6pngYkj-94" value="View" style="rounded=1;whiteSpace=wrap;html=1;fillColor=#d5e8d4;strokeColor=#82b366;" vertex="1" parent="1">
          <mxGeometry x="571" y="247" width="52" height="20" as="geometry" />
        </mxCell>
        <mxCell id="KHMA0O44EKqsa6pngYkj-95" value="" style="rounded=0;whiteSpace=wrap;html=1;fillColor=#bac8d3;strokeColor=#23445d;" vertex="1" parent="1">
          <mxGeometry x="100" y="40" width="540" height="30" as="geometry" />
        </mxCell>
        <mxCell id="KHMA0O44EKqsa6pngYkj-96" value="Text" style="text;html=1;strokeColor=none;fillColor=none;align=center;verticalAlign=middle;whiteSpace=wrap;rounded=0;fontColor=#919191;" vertex="1" parent="1">
          <mxGeometry x="390" y="200" width="60" height="30" as="geometry" />
        </mxCell>
        <mxCell id="KHMA0O44EKqsa6pngYkj-97" value="&lt;div&gt;&lt;font&gt;Logout&lt;/font&gt;&lt;/div&gt;" style="text;html=1;strokeColor=none;fillColor=none;align=center;verticalAlign=middle;whiteSpace=wrap;rounded=0;fontColor=#575757;" vertex="1" parent="1">
          <mxGeometry x="580" y="40" width="60" height="30" as="geometry" />
        </mxCell>
        <mxCell id="KHMA0O44EKqsa6pngYkj-98" value="Hi, Admin" style="text;html=1;strokeColor=none;fillColor=none;align=center;verticalAlign=middle;whiteSpace=wrap;rounded=0;fontColor=#575757;" vertex="1" parent="1">
          <mxGeometry x="520" y="40" width="60" height="30" as="geometry" />
        </mxCell>
        <mxCell id="KHMA0O44EKqsa6pngYkj-105" value="" style="group" vertex="1" connectable="0" parent="1">
          <mxGeometry x="240" y="150" width="7" height="10" as="geometry" />
        </mxCell>
        <mxCell id="KHMA0O44EKqsa6pngYkj-99" value="" style="triangle;whiteSpace=wrap;html=1;fontColor=#575757;rotation=-90;fillColor=#0A0A0A;" vertex="1" parent="KHMA0O44EKqsa6pngYkj-105">
          <mxGeometry x="1.0499999999999998" y="-0.8823529411764706" width="4.8999999999999995" height="5.882352941176471" as="geometry" />
        </mxCell>
        <mxCell id="KHMA0O44EKqsa6pngYkj-102" value="" style="triangle;whiteSpace=wrap;html=1;fontColor=#575757;rotation=90;fillColor=#0A0A0A;" vertex="1" parent="KHMA0O44EKqsa6pngYkj-105">
          <mxGeometry x="1.0499999999999998" y="8" width="4.8999999999999995" height="5.882352941176471" as="geometry" />
        </mxCell>
      </root>
    </mxGraphModel>
  </diagram>
</mxfile>
